<svg xmlns="http://www.w3.org/2000/svg" viewBox="0 0 1366 768"><defs><style>.cls-1{fill:#2e2e51;}.cls-2{fill:#97cff2;}.cls-3{fill:#fff;}</style></defs><g id="_1" data-name="1"><rect class="cls-1" x="-46.35" y="-23.31" width="1428.15" height="824.62"/><g id="_1-2" data-name="1"><path class="cls-2" d="M962.81,60.25c-5.92-.56-11.58,2-16.2,5.49C941,70,936.47,75.46,932.44,81.17c-7.94,11.25-14.07,23.76-19.47,36.4-1.93,4.53-3.61,9.21-6,13.53a70.07,70.07,0,0,1-9.41,12.78c-2,2.19-4,4.28-5.73,6.65-1.63,2.21-3.13,4.54-4.81,6.72s-3.65,3.93-5.3,6.05-3.28,4.64-5,6.93c-3.7,5.08-8.29,9.6-12.61,14.14s-8.34,9.13-13.49,12.49c-2.71,1.76-5.61,3.2-8.4,4.85a65,65,0,0,0-18.41,16.36c-3.6,4.7-6.16,9.91-9,15.1-5.44,10.11-13.57,18.23-22.71,25.05-2.2,1.64-4.44,3.21-6.72,4.74-16.31,3.28-33,10.28-45.66,21.2a49.58,49.58,0,0,0-8.21,9.38c-2.44,3.45-4.91,6.71-8.45,9.11-3.35,2.27-7.06,3.91-10.54,5.94-3.82,2.24-7.18,5.13-10.83,7.62-7,4.82-15.28,6.74-23.27,9.35a51.65,51.65,0,0,0-18.8,10.24c-10.65,9.38-17.47,22.19-25.93,33.39-7.6,10.07-17.38,18.49-26.71,26.91-3.52,3.17-7,6.67-10.82,9.3-4.93,3.38-10.55,5.57-15.64,8.7a84.71,84.71,0,0,0-8.84,6.34,30.51,30.51,0,0,0-8.09,9c-1.66,3.11-2.55,6.79-4.86,9.52-2.56,3-6.52,3.36-10.21,3.71a26.83,26.83,0,0,0-10.85,3A59.5,59.5,0,0,0,528,453c-3.33,2.85-6.65,5.74-9.75,8.85-1.44,1.44-2.82,2.94-4.16,4.49a17.8,17.8,0,0,1-4.53,4.3c-3.81,2.11-9.48,1.64-13.62,1s-8.37-2.13-12.67-1.41c-3.93.65-7.24,3-10.38,5.34Q467,480,461,484.4c-6.59,4.9-13.79,11.14-22.49,8-3.53-1.28-7-3.39-10.86-3.3-4.05.08-7.08,2.89-10.1,5.24q-5.55,4.33-11,8.82c-1.49,1.24.64,3.35,2.12,2.13q5.56-4.62,11.25-9.05c1.79-1.39,3.67-3.17,5.87-3.85a9.35,9.35,0,0,1,5.81.47c3.51,1.19,6.74,3.12,10.5,3.47s7.61-1,10.93-2.81a97.23,97.23,0,0,0,10.63-7.42c3.82-2.84,7.62-5.7,11.46-8.51,3.64-2.67,7.31-4.9,12-4.52,4.49.37,8.76,1.84,13.31,1.95,3.76.09,8.11-.07,11.32-2.26s5.58-5.78,8.33-8.56c3.17-3.2,6.57-6.16,10-9.09,3.12-2.68,6.25-5.49,10-7.34,6.46-3.23,15.16-.7,20.49-6.31,2.42-2.54,3.51-5.93,5-9.05A27.11,27.11,0,0,1,573.4,423a96.71,96.71,0,0,1,17.66-11.13,53.4,53.4,0,0,0,11.37-7.58c9.29-8.18,18.65-16.45,27.17-25.45,9.33-9.85,15.72-22,24.26-32.46,4.35-5.33,9.31-10.33,15.36-13.72,7.06-3.94,15.15-5.47,22.7-8.19A49.32,49.32,0,0,0,703,319c3.67-2.47,7-5.38,10.85-7.65,3.38-2,7-3.61,10.29-5.76a31.67,31.67,0,0,0,8.17-7.91c2.59-3.5,4.92-7.06,8.12-10.06a67.89,67.89,0,0,1,10.36-7.7A105.36,105.36,0,0,1,774.15,269a108.77,108.77,0,0,1,12.17-3.17h0l.29-.09.19-.1.08,0c9.27-6.21,18.13-13.25,25-22.16,3.69-4.82,6.26-10.19,9.16-15.5a62.57,62.57,0,0,1,9.83-13.43,60.82,60.82,0,0,1,12.93-10.21c2.65-1.57,5.4-3,8-4.6a47.55,47.55,0,0,0,7.14-5.67c4.58-4.34,8.86-9,13.12-13.69,2.09-2.28,4.2-4.56,6.11-7,1.78-2.28,3.34-4.71,5-7.05,1.57-2.15,3.49-3.93,5.18-6s3.27-4.37,4.84-6.6c3.31-4.69,7.51-8.61,11-13.13a60.13,60.13,0,0,0,7.89-13.24c.64-1.5,1.25-3,1.87-4.53a230.48,230.48,0,0,1,16.89-33.87,90.29,90.29,0,0,1,13.19-17.07c4.09-4,9.14-7.77,15-8.57a16.38,16.38,0,0,1,3.77,0C964.73,63.43,964.72,60.43,962.81,60.25Z"/><g id="moulin"><path class="cls-3" d="M975.15,45.78H973a2.32,2.32,0,1,1-4.64,0h-2.11a2.32,2.32,0,1,1-4.64,0h-2.11a65.4,65.4,0,0,1,11.18,4.43,4.38,4.38,0,0,1,6.75,0V48.1A2.32,2.32,0,0,1,975.15,45.78Z"/><path class="cls-3" d="M975.15,51.69H973a2.32,2.32,0,1,1-4.64,0h-2.11a2.32,2.32,0,1,1-4.64,0h-2.11A2.32,2.32,0,0,1,957.22,54v2.11a4.36,4.36,0,0,1,6.75,0,4.36,4.36,0,0,1,6.75,0,4.36,4.36,0,0,1,6.75,0V54A2.32,2.32,0,0,1,975.15,51.69Z"/><path class="cls-3" d="M942.88,32a13.81,13.81,0,1,0,13.8,13.8A13.8,13.8,0,0,0,942.88,32Zm4.53,13a4.51,4.51,0,0,0-.78-1.9L951,38.76A10.71,10.71,0,0,1,953.58,45Zm-1.87-3a4.6,4.6,0,0,0-1.89-.78V35.08a10.71,10.71,0,0,1,6.25,2.59Zm-3.43-.78a4.6,4.6,0,0,0-1.89.78l-4.37-4.36a10.74,10.74,0,0,1,6.26-2.59Zm-1.9,8.28a4.71,4.71,0,0,0,1.9.79v6.16a10.68,10.68,0,0,1-6.26-2.59Zm3.44.79a4.61,4.61,0,0,0,1.89-.79l4.36,4.36a10.65,10.65,0,0,1-6.25,2.59Zm-8.88-11.56,4.36,4.36a4.51,4.51,0,0,0-.78,1.9h-6.17A10.65,10.65,0,0,1,934.77,38.76Zm-2.59,7.71h6.16a4.51,4.51,0,0,0,.79,2l-4.36,4.37A10.69,10.69,0,0,1,932.18,46.47ZM951,52.81l-4.36-4.36a4.59,4.59,0,0,0,.79-2h6.16A10.69,10.69,0,0,1,951,52.81Z"/><path class="cls-3" d="M961.44,16.25,943.72,26.38V29a16.87,16.87,0,0,1,15.82,14.3h16.24V31.44a1.69,1.69,0,0,1,1.69-1.69h1.69V26.38Z"/></g></g></g></svg>