<svg xmlns="http://www.w3.org/2000/svg" viewBox="0 0 1366 768"><defs><style>.cls-1{fill:#2e2e51;}.cls-2{fill:#97cff2;}.cls-3{fill:#fff;}.cls-10,.cls-11,.cls-12,.cls-13,.cls-14,.cls-15,.cls-16,.cls-17,.cls-18,.cls-19,.cls-20,.cls-21,.cls-22,.cls-4,.cls-5,.cls-6,.cls-7,.cls-8,.cls-9{fill:none;}.cls-4{stroke:#cfc;}.cls-10,.cls-11,.cls-12,.cls-13,.cls-14,.cls-15,.cls-16,.cls-17,.cls-18,.cls-19,.cls-4,.cls-5,.cls-6,.cls-7,.cls-8,.cls-9{stroke-miterlimit:10;}.cls-10,.cls-11,.cls-12,.cls-13,.cls-14,.cls-15,.cls-16,.cls-17,.cls-18,.cls-19,.cls-5,.cls-6,.cls-7,.cls-8,.cls-9{stroke:#b5b5f7;}.cls-6{stroke-dasharray:4.9 4.9;}.cls-7{stroke-dasharray:5.12 5.12;}.cls-8{stroke-dasharray:5.03 5.03;}.cls-9{stroke-dasharray:6.22 6.22;}.cls-10{stroke-dasharray:5.17 5.17;}.cls-11{stroke-dasharray:4.48 4.48;}.cls-12{stroke-dasharray:4.71 4.71;}.cls-13{stroke-dasharray:4.98 4.98;}.cls-14{stroke-dasharray:4.65 4.65;}.cls-15{stroke-dasharray:5.09 5.09;}.cls-16{stroke-dasharray:4.8 4.8;}.cls-17{stroke-dasharray:5.06 5.06;}.cls-18{stroke-dasharray:4.8 4.8;}.cls-19,.cls-21{stroke-dasharray:5;}.cls-20,.cls-21,.cls-22{stroke:#64a382;stroke-linecap:round;stroke-linejoin:round;stroke-width:2px;}.cls-22{stroke-dasharray:4.46 4.46;}</style></defs><g id="_4" data-name="4"><rect class="cls-1" x="-46.35" y="-23.31" width="1428.15" height="824.62"/><g id="_1-2" data-name="1"><path class="cls-2" d="M962.81,60.25c-5.92-.56-11.58,2-16.2,5.49C941,70,936.47,75.46,932.44,81.17c-7.94,11.25-14.07,23.76-19.47,36.4-1.93,4.53-3.61,9.21-6,13.53a70.07,70.07,0,0,1-9.41,12.78c-2,2.19-4,4.28-5.73,6.65-1.63,2.21-3.13,4.54-4.81,6.72s-3.65,3.93-5.3,6.05-3.28,4.64-5,6.93c-3.7,5.08-8.29,9.6-12.61,14.14s-8.34,9.13-13.49,12.49c-2.71,1.76-5.61,3.2-8.4,4.85a65,65,0,0,0-18.41,16.36c-3.6,4.7-6.16,9.91-9,15.1-5.44,10.11-13.57,18.23-22.71,25.05-2.2,1.64-4.44,3.21-6.72,4.74-16.31,3.28-33,10.28-45.66,21.2a49.58,49.58,0,0,0-8.21,9.38c-2.44,3.45-4.91,6.71-8.45,9.11-3.35,2.27-7.06,3.91-10.54,5.94-3.82,2.24-7.18,5.13-10.83,7.62-7,4.82-15.28,6.74-23.27,9.35a51.65,51.65,0,0,0-18.8,10.24c-10.65,9.38-17.47,22.19-25.93,33.39-7.6,10.07-17.38,18.49-26.71,26.91-3.52,3.17-7,6.67-10.82,9.3-4.93,3.38-10.55,5.57-15.64,8.7a84.71,84.71,0,0,0-8.84,6.34,30.51,30.51,0,0,0-8.09,9c-1.66,3.11-2.55,6.79-4.86,9.52-2.56,3-6.52,3.36-10.21,3.71a26.83,26.83,0,0,0-10.85,3A59.5,59.5,0,0,0,528,453c-3.33,2.85-6.65,5.74-9.75,8.85-1.44,1.44-2.82,2.94-4.16,4.49a17.8,17.8,0,0,1-4.53,4.3c-3.81,2.11-9.48,1.64-13.62,1s-8.37-2.13-12.67-1.41c-3.93.65-7.24,3-10.38,5.34Q467,480,461,484.4c-6.59,4.9-13.79,11.14-22.49,8-3.53-1.28-7-3.39-10.86-3.3-4.05.08-7.08,2.89-10.1,5.24q-5.55,4.33-11,8.82c-1.49,1.24.64,3.35,2.12,2.13q5.56-4.62,11.25-9.05c1.79-1.39,3.67-3.17,5.87-3.85a9.35,9.35,0,0,1,5.81.47c3.51,1.19,6.74,3.12,10.5,3.47s7.61-1,10.93-2.81a97.23,97.23,0,0,0,10.63-7.42c3.82-2.84,7.62-5.7,11.46-8.51,3.64-2.67,7.31-4.9,12-4.52,4.49.37,8.76,1.84,13.31,1.95,3.76.09,8.11-.07,11.32-2.26s5.58-5.78,8.33-8.56c3.17-3.2,6.57-6.16,10-9.09,3.12-2.68,6.25-5.49,10-7.34,6.46-3.23,15.16-.7,20.49-6.31,2.42-2.54,3.51-5.93,5-9.05A27.11,27.11,0,0,1,573.4,423a96.71,96.71,0,0,1,17.66-11.13,53.4,53.4,0,0,0,11.37-7.58c9.29-8.18,18.65-16.45,27.17-25.45,9.33-9.85,15.72-22,24.26-32.46,4.35-5.33,9.31-10.33,15.36-13.72,7.06-3.94,15.15-5.47,22.7-8.19A49.32,49.32,0,0,0,703,319c3.67-2.47,7-5.38,10.85-7.65,3.38-2,7-3.61,10.29-5.76a31.67,31.67,0,0,0,8.17-7.91c2.59-3.5,4.92-7.06,8.12-10.06a67.89,67.89,0,0,1,10.36-7.7A105.36,105.36,0,0,1,774.15,269a108.77,108.77,0,0,1,12.17-3.17h0l.29-.09.19-.1.08,0c9.27-6.21,18.13-13.25,25-22.16,3.69-4.82,6.26-10.19,9.16-15.5a62.57,62.57,0,0,1,9.83-13.43,60.82,60.82,0,0,1,12.93-10.21c2.65-1.57,5.4-3,8-4.6a47.55,47.55,0,0,0,7.14-5.67c4.58-4.34,8.86-9,13.12-13.69,2.09-2.28,4.2-4.56,6.11-7,1.78-2.28,3.34-4.71,5-7.05,1.57-2.15,3.49-3.93,5.18-6s3.27-4.37,4.84-6.6c3.31-4.69,7.51-8.61,11-13.13a60.13,60.13,0,0,0,7.89-13.24c.64-1.5,1.25-3,1.87-4.53a230.48,230.48,0,0,1,16.89-33.87,90.29,90.29,0,0,1,13.19-17.07c4.09-4,9.14-7.77,15-8.57a16.38,16.38,0,0,1,3.77,0C964.73,63.43,964.72,60.43,962.81,60.25Z"/><g id="moulin"><path class="cls-3" d="M975.15,45.78H973a2.32,2.32,0,1,1-4.64,0h-2.11a2.32,2.32,0,1,1-4.64,0h-2.11a65.4,65.4,0,0,1,11.18,4.43,4.38,4.38,0,0,1,6.75,0V48.1A2.32,2.32,0,0,1,975.15,45.78Z"/><path class="cls-3" d="M975.15,51.69H973a2.32,2.32,0,1,1-4.64,0h-2.11a2.32,2.32,0,1,1-4.64,0h-2.11A2.32,2.32,0,0,1,957.22,54v2.11a4.36,4.36,0,0,1,6.75,0,4.36,4.36,0,0,1,6.75,0,4.36,4.36,0,0,1,6.75,0V54A2.32,2.32,0,0,1,975.15,51.69Z"/><path class="cls-3" d="M942.88,32a13.81,13.81,0,1,0,13.8,13.8A13.8,13.8,0,0,0,942.88,32Zm4.53,13a4.51,4.51,0,0,0-.78-1.9L951,38.76A10.71,10.71,0,0,1,953.58,45Zm-1.87-3a4.6,4.6,0,0,0-1.89-.78V35.08a10.71,10.71,0,0,1,6.25,2.59Zm-3.43-.78a4.6,4.6,0,0,0-1.89.78l-4.37-4.36a10.74,10.74,0,0,1,6.26-2.59Zm-1.9,8.28a4.71,4.71,0,0,0,1.9.79v6.16a10.68,10.68,0,0,1-6.26-2.59Zm3.44.79a4.61,4.61,0,0,0,1.89-.79l4.36,4.36a10.65,10.65,0,0,1-6.25,2.59Zm-8.88-11.56,4.36,4.36a4.51,4.51,0,0,0-.78,1.9h-6.17A10.65,10.65,0,0,1,934.77,38.76Zm-2.59,7.71h6.16a4.51,4.51,0,0,0,.79,2l-4.36,4.37A10.69,10.69,0,0,1,932.18,46.47ZM951,52.81l-4.36-4.36a4.59,4.59,0,0,0,.79-2h6.16A10.69,10.69,0,0,1,951,52.81Z"/><path class="cls-3" d="M961.44,16.25,943.72,26.38V29a16.87,16.87,0,0,1,15.82,14.3h16.24V31.44a1.69,1.69,0,0,1,1.69-1.69h1.69V26.38Z"/></g></g><g id="_2-2" data-name="2"><path id="propriété_jomain" data-name="propriété jomain" class="cls-3" d="M968,195.66h-1.7V169.57h2.22l-2.74-9.74H923l-2.74,9.74h2.22v26.09h-1.7a1.14,1.14,0,1,0,0,2.27H968a1.14,1.14,0,1,0,0-2.27Zm-12.45-21.08h4.82v7.28h-4.82Zm0,10h4.82v7.28h-4.82ZM942,172.4h4.82v7.28H942Zm-13.54,2.18h4.82v7.28h-4.82Zm0,10h4.82v7.28h-4.82Zm12.31.2H948v10.83h-7.28Z"/><path class="cls-4" d="M362.45,518.35c17.25,30.82,52.75,96,63.22,115.19,1.71,3.13,41.61,0,43.7-1.29,22.22-15.24,46.23-34.06,66.78-51.5,15.63-13.27,48.18-47.1,66-52,38.15-10.37,52.6-22.18,61.88-26,18.68-7.7,137.48-42.65,154.78-46.79a70,70,0,0,0,11.39-3.47h0c.76-.68,24.4-5.63,27.67-6.58,35.19-10.17,35.45-9.45,46.61-18.69,3.33-2.76,11.93-18.21,12.5-20.83,1.79-8.23-47.59-46.07-40.6-50.74,25.34-21,40.54-41.21,64.49-63.71,4-6.91,10-22.92,12.64-32.37C954,258,957,233.8,952,226.84c-3.66-7.9,9.35-20,15.58-27.5,3.1-3.76,9.08-11.48,15.28-13.89,7.95-3.09,16.21-.75,18.86-5.28,9.79-9.32,7.89-8.81,18.08-17.78,1.72-.73-9.45-78.33-20.28-78.33-10.43,9.8-23.18,5.86-34.72,14.44-3.5,2.63-27.23,23.55-31.39,22-23.33-9-27.11-26.66-36.67-18.06-28.19,25.35-62.24,85.25-89.1,112.05-3.84,3.84-14.47-2.06-15.07,3.51-.46,4.22-10,17.51-13.89,19.45-7.18,3.55-55.52,37.33-69.85,43-3.34,1.32-68.69,48.7-85.16,60.38C621.37,342.35,356.48,509.8,362.45,518.35Z"/></g><g id="_3" data-name="3"><path class="cls-2" d="M430.44,546.82a72.85,72.85,0,0,1-22.74-42c-.33-1.9-3.22-1.09-2.9.8a75.54,75.54,0,0,0,23.51,43.31c1.43,1.3,3.56-.81,2.13-2.12Z"/><path class="cls-2" d="M289.51,456.65c5.89,5.22,13.61,7,21.13,8.48a255.51,255.51,0,0,1,26.09,6.76c8.15,2.54,17,4.58,23.94,9.84,3.13,2.38,5.91,5.18,8.93,7.69a45.94,45.94,0,0,0,10,6.23,21.22,21.22,0,0,1,5.64,3.52,28.6,28.6,0,0,0,4.66,4.14c2.09,1.25,4.53,1.54,6.88,1.92l7.89,1.28c1.89.3,2.7-2.59.8-2.89l-6.93-1.13a27.64,27.64,0,0,1-6.18-1.3c-1.8-.75-3.08-2.24-4.44-3.59a19.71,19.71,0,0,0-4.54-3.41c-3.49-1.9-7.09-3.3-10.28-5.75s-5.8-5.08-8.76-7.55a40.24,40.24,0,0,0-10.16-6.28c-4-1.69-8.2-2.92-12.34-4.24a268.77,268.77,0,0,0-26.44-7.32c-8.17-1.72-17.32-2.75-23.82-8.52-1.44-1.28-3.57.83-2.12,2.12Z"/><path class="cls-2" d="M512.74,576.35c-2.11-4.69-4.59-9.23-7.08-13.74-6.31-11.46-13-22.8-20.22-33.67-1.3-1.94-2.62-3.87-4-5.73a22.15,22.15,0,0,0-3-3.5,2.73,2.73,0,0,0-3-.68,38.16,38.16,0,0,0-4.95,2.58c-11.51,6.58-22.6,13.9-34.17,20.38q-1.42.81-2.88,1.56l-1.12.56-.47.21-.1,0a1.61,1.61,0,0,0-.39.16L418.68,552l-6.35,3.75c-.69.41-1.29.78-1.32,1.7a4.68,4.68,0,0,0,.28,1.48c1.22,3.87,3.35,7.55,5.22,11.12,3,5.76,6.17,11.45,9.36,17.11,5.82,10.32,11.71,20.62,17.94,30.69.58.93,1.14,1.89,1.78,2.77a2.15,2.15,0,0,0,2.71.81c3.3-1.09,6.43-3.1,9.45-4.78,11.17-6.22,22.11-12.85,33-19.5q7.41-4.51,14.77-9.1c2.59-1.62,5.28-3.17,7.75-5C515.53,581.46,513.6,578.27,512.74,576.35Z"/><g id="petits_chemins" data-name="petits chemins"><g id="chemins"><path class="cls-5" d="M420.91,512.37c.77.34,1.52.69,2.27,1"/><path class="cls-6" d="M427.61,515.5c10.88,5,22.16,8.69,47.07-.51,32.59-12,9-8.52,57.64-23.33L567.46,468l7.09-19.42"/><line class="cls-5" x1="575.4" y1="446.23" x2="576.25" y2="443.88"/><path class="cls-5" d="M406.89,539.44c.16.86.29,1.68.4,2.47"/><path class="cls-7" d="M407.73,547c.31,7.13-.63,11.73,3.61,20.21,4.58,9.17,26.56,46.83,34.11,59.72"/><path class="cls-5" d="M446.74,629.14,448,631.3"/><line class="cls-5" x1="448.01" y1="631.3" x2="450.1" y2="629.93"/><path class="cls-8" d="M454.32,627.18l118.14-77s29.63-34.08,44.45-38.52S848,441.49,858.77,442.4c24.12,2-4.07-10.74-5.19-24.82s-5.18-36.3,12.6-55.19,28.89-20.74,38.15-41.11,25.18-52.23,37.41-77-3-16.3,11.11-38.52a100,100,0,0,1,12.58-15.12"/><path class="cls-5" d="M967.2,188.8,969,187"/><line class="cls-5" x1="862.55" y1="196.67" x2="865.01" y2="197.12"/><line class="cls-9" x1="871.13" y1="198.23" x2="880.31" y2="199.9"/><line class="cls-5" x1="883.38" y1="200.46" x2="885.83" y2="200.91"/><path class="cls-5" d="M767.6,268.24s.43.79,1.11,2.23"/><path class="cls-10" d="M770.73,275.23a87.24,87.24,0,0,1,4.79,17.43"/><path class="cls-5" d="M775.9,295.23q.15,1.23.27,2.49"/><line class="cls-5" x1="651.72" y1="349.51" x2="651.79" y2="352.01"/><line class="cls-11" x1="651.9" y1="356.49" x2="652.76" y2="390.11"/><line class="cls-5" x1="652.82" y1="392.35" x2="652.88" y2="394.85"/><path class="cls-5" d="M930.26,160.11s-.68-.06-2.24,1"/><path class="cls-12" d="M924.55,164.33a64.68,64.68,0,0,0-4.46,5.47"/><path class="cls-5" d="M918.71,171.71c-.46.65-.93,1.34-1.42,2.06"/><path class="cls-5" d="M940.53,172.89a3.57,3.57,0,0,1,.23,2.43"/><path class="cls-13" d="M936.48,177.2c-6.11-.07-14.4-7.7-22-2s-115,105.35-115,105.35-15.74,18.15-31.12,18.89c-12,.58-84.66,66.74-115.55,95.37-8.54,7.92-13.9,13-13.9,13s-46.33,7.58-60.5,31.62"/><path class="cls-5" d="M577.25,441.59c-.36.74-.69,1.51-1,2.29"/><path class="cls-5" d="M405.71,533.34a5.89,5.89,0,0,0,2.48-.05"/><path class="cls-14" d="M412.32,531.25c2.62-2.12,5.53-6.22,7.73-14"/><path class="cls-5" d="M420.64,514.94c.19-.78.37-1.6.55-2.45"/><path class="cls-5" d="M409.25,562.18a7.54,7.54,0,0,1,.36-2.46"/><path class="cls-15" d="M411.86,555.18c2.81-4,8.62-9.26,20.59-14.07,24.17-9.73,38.89-26.39,47.5-21.67,7.18,3.94,29.43,47,36.62,61.18"/><path class="cls-5" d="M517.72,582.9l1.12,2.23"/><line class="cls-5" x1="481.21" y1="512.49" x2="481.65" y2="514.95"/><line class="cls-5" x1="482.5" y1="519.73" x2="482.93" y2="522.19"/><line class="cls-5" x1="532.32" y1="491.66" x2="530.33" y2="493.17"/><line class="cls-16" x1="526.5" y1="496.07" x2="490.19" y2="523.65"/><line class="cls-5" x1="488.28" y1="525.1" x2="486.29" y2="526.61"/><line class="cls-5" x1="560.86" y1="557.74" x2="559.68" y2="555.54"/><line class="cls-17" x1="557.3" y1="551.07" x2="529.92" y2="499.72"/><line class="cls-5" x1="528.72" y1="497.49" x2="527.55" y2="495.28"/><line class="cls-5" x1="812.32" y1="239.73" x2="813.99" y2="241.59"/><polyline class="cls-18" points="817.21 245.16 826.53 255.52 897.34 324.55"/><line class="cls-5" x1="899.06" y1="326.22" x2="900.85" y2="327.97"/></g><path class="cls-19" d="M1014.24,118.32s-36.18,29.59-54.4,48.62"/></g><g id="axes_routiers" data-name="axes routiers"><line class="cls-20" x1="559.21" y1="558.44" x2="595.37" y2="625.46"/><polyline class="cls-20" points="874.33 450.44 667.17 509.46 728.1 622.08"/><polyline class="cls-20" points="650.07 583.55 636.33 554.78 684.28 541.08"/><polyline class="cls-20" points="753.33 572.02 744.72 520.54 758.28 483.51"/><path class="cls-21" d="M1046.46,192c3,24.24,3.83,40.88,3.83,40.88"/><path class="cls-20" d="M1010.24,56.23c2.11,3.8,4,7.57,5.67,11.31,17,38.32,25.8,87.25,30.23,121.92"/><path class="cls-20" d="M987.41,23.17,989,25.11"/><path class="cls-22" d="M991.76,28.61a208.63,208.63,0,0,1,14.21,20"/><path class="cls-20" d="M1007.12,50.52l1.26,2.15"/></g><circle class="cls-3" cx="464.21" cy="570.01" r="4.37"/></g></g></svg>