<svg xmlns="http://www.w3.org/2000/svg" viewBox="0 0 720 720" width="720" height="720" preserveAspectRatio="xMidYMid meet" style="width: 100%; height: 100%; transform: translate3d(0px, 0px, 0px);"><defs><clipPath id="__lottie_element_2"><rect width="720" height="720" x="0" y="0"></rect></clipPath></defs><g clip-path="url(#__lottie_element_2)"><g transform="matrix(-0.18440960347652435,-0.2974779009819031,0.2974779009819031,-0.18440960347652435,124.61203002929688,113.02532958984375)" opacity="1" style="display: block;"><g opacity="1" transform="matrix(1,0,0,1,-1425.2950439453125,-531.6270141601562)"><path fill="rgb(152,83,155)" fill-opacity="1" d=" M0,-22.413999557495117 C12.370285987854004,-22.413999557495117 22.413999557495117,-12.370285987854004 22.413999557495117,0 C22.413999557495117,12.370285987854004 12.370285987854004,22.413999557495117 0,22.413999557495117 C-12.370285987854004,22.413999557495117 -22.413999557495117,12.370285987854004 -22.413999557495117,0 C-22.413999557495117,-12.370285987854004 -12.370285987854004,-22.413999557495117 0,-22.413999557495117z"></path></g><g opacity="1" transform="matrix(0.4888800084590912,0,0,0.4888800084590912,-262.9840087890625,-31.827999114990234)"><path fill="rgb(152,83,155)" fill-opacity="1" d=" M0,-22.413999557495117 C12.370285987854004,-22.413999557495117 22.413999557495117,-12.370285987854004 22.413999557495117,0 C22.413999557495117,12.370285987854004 12.370285987854004,22.413999557495117 0,22.413999557495117 C-12.370285987854004,22.413999557495117 -22.413999557495117,12.370285987854004 -22.413999557495117,0 C-22.413999557495117,-12.370285987854004 -12.370285987854004,-22.413999557495117 0,-22.413999557495117z"></path></g><g opacity="1" transform="matrix(0.5749499797821045,0,0,0.5749499797821045,-1071.885009765625,932.5689697265625)"><path fill="rgb(152,83,155)" fill-opacity="1" d=" M0,-22.413999557495117 C12.370285987854004,-22.413999557495117 22.413999557495117,-12.370285987854004 22.413999557495117,0 C22.413999557495117,12.370285987854004 12.370285987854004,22.413999557495117 0,22.413999557495117 C-12.370285987854004,22.413999557495117 -22.413999557495117,12.370285987854004 -22.413999557495117,0 C-22.413999557495117,-12.370285987854004 -12.370285987854004,-22.413999557495117 0,-22.413999557495117z"></path></g><g opacity="1" transform="matrix(0.3878200054168701,0,0,0.3878200054168701,-641.9580078125,-543.2329711914062)"><path fill="rgb(32,191,223)" fill-opacity="1" d=" M0,-22.413999557495117 C12.370285987854004,-22.413999557495117 22.413999557495117,-12.370285987854004 22.413999557495117,0 C22.413999557495117,12.370285987854004 12.370285987854004,22.413999557495117 0,22.413999557495117 C-12.370285987854004,22.413999557495117 -22.413999557495117,12.370285987854004 -22.413999557495117,0 C-22.413999557495117,-12.370285987854004 -12.370285987854004,-22.413999557495117 0,-22.413999557495117z"></path></g><g opacity="1" transform="matrix(0.6245700120925903,0,0,0.6245700120925903,-1693.906005859375,455.85699462890625)"><path fill="rgb(32,191,223)" fill-opacity="1" d=" M0,-22.413999557495117 C12.370285987854004,-22.413999557495117 22.413999557495117,-12.370285987854004 22.413999557495117,0 C22.413999557495117,12.370285987854004 12.370285987854004,22.413999557495117 0,22.413999557495117 C-12.370285987854004,22.413999557495117 -22.413999557495117,12.370285987854004 -22.413999557495117,0 C-22.413999557495117,-12.370285987854004 -12.370285987854004,-22.413999557495117 0,-22.413999557495117z"></path></g><g opacity="1" transform="matrix(0.30908000469207764,0,0,0.30908000469207764,-1334.2459716796875,-571.8720092773438)"><path fill="rgb(32,191,223)" fill-opacity="1" d=" M0,-22.413999557495117 C12.370285987854004,-22.413999557495117 22.413999557495117,-12.370285987854004 22.413999557495117,0 C22.413999557495117,12.370285987854004 12.370285987854004,22.413999557495117 0,22.413999557495117 C-12.370285987854004,22.413999557495117 -22.413999557495117,12.370285987854004 -22.413999557495117,0 C-22.413999557495117,-12.370285987854004 -12.370285987854004,-22.413999557495117 0,-22.413999557495117z"></path></g><g opacity="1" transform="matrix(0.3123300075531006,0,0,0.3123300075531006,-1809.5699462890625,76.95600128173828)"><path fill="rgb(32,191,223)" fill-opacity="1" d=" M0,-22.413999557495117 C12.370285987854004,-22.413999557495117 22.413999557495117,-12.370285987854004 22.413999557495117,0 C22.413999557495117,12.370285987854004 12.370285987854004,22.413999557495117 0,22.413999557495117 C-12.370285987854004,22.413999557495117 -22.413999557495117,12.370285987854004 -22.413999557495117,0 C-22.413999557495117,-12.370285987854004 -12.370285987854004,-22.413999557495117 0,-22.413999557495117z"></path></g><g opacity="1" transform="matrix(0.5631899833679199,0,0,0.5631899833679199,-275.70001220703125,388.9960021972656)"><path fill="rgb(32,191,223)" fill-opacity="1" d=" M0,-22.413999557495117 C12.370285987854004,-22.413999557495117 22.413999557495117,-12.370285987854004 22.413999557495117,0 C22.413999557495117,12.370285987854004 12.370285987854004,22.413999557495117 0,22.413999557495117 C-12.370285987854004,22.413999557495117 -22.413999557495117,12.370285987854004 -22.413999557495117,0 C-22.413999557495117,-12.370285987854004 -12.370285987854004,-22.413999557495117 0,-22.413999557495117z"></path></g><g opacity="1" transform="matrix(0.5631899833679199,0,0,0.5631899833679199,-523.2949829101562,753.989990234375)"><path fill="rgb(32,191,223)" fill-opacity="1" d=" M0,-22.413999557495117 C12.370285987854004,-22.413999557495117 22.413999557495117,-12.370285987854004 22.413999557495117,0 C22.413999557495117,12.370285987854004 12.370285987854004,22.413999557495117 0,22.413999557495117 C-12.370285987854004,22.413999557495117 -22.413999557495117,12.370285987854004 -22.413999557495117,0 C-22.413999557495117,-12.370285987854004 -12.370285987854004,-22.413999557495117 0,-22.413999557495117z"></path></g><g opacity="1" transform="matrix(0.5631899833679199,0,0,0.5631899833679199,-1033.2220458984375,935.4190063476562)"><path fill="rgb(32,191,223)" fill-opacity="1" d=" M0,-22.413999557495117 C12.370285987854004,-22.413999557495117 22.413999557495117,-12.370285987854004 22.413999557495117,0 C22.413999557495117,12.370285987854004 12.370285987854004,22.413999557495117 0,22.413999557495117 C-12.370285987854004,22.413999557495117 -22.413999557495117,12.370285987854004 -22.413999557495117,0 C-22.413999557495117,-12.370285987854004 -12.370285987854004,-22.413999557495117 0,-22.413999557495117z"></path></g><g opacity="1" transform="matrix(0.5631899833679199,0,0,0.5631899833679199,-1419.9859619140625,825.39697265625)"><path fill="rgb(32,191,223)" fill-opacity="1" d=" M0,-22.413999557495117 C12.370285987854004,-22.413999557495117 22.413999557495117,-12.370285987854004 22.413999557495117,0 C22.413999557495117,12.370285987854004 12.370285987854004,22.413999557495117 0,22.413999557495117 C-12.370285987854004,22.413999557495117 -22.413999557495117,12.370285987854004 -22.413999557495117,0 C-22.413999557495117,-12.370285987854004 -12.370285987854004,-22.413999557495117 0,-22.413999557495117z"></path></g><g opacity="1" transform="matrix(1,0,0,1,-1707.8480224609375,-265.05499267578125)"><path fill="rgb(191,203,81)" fill-opacity="1" d=" M0,-22.413999557495117 C12.370285987854004,-22.413999557495117 22.413999557495117,-12.370285987854004 22.413999557495117,0 C22.413999557495117,12.370285987854004 12.370285987854004,22.413999557495117 0,22.413999557495117 C-12.370285987854004,22.413999557495117 -22.413999557495117,12.370285987854004 -22.413999557495117,0 C-22.413999557495117,-12.370285987854004 -12.370285987854004,-22.413999557495117 0,-22.413999557495117z"></path></g><g opacity="1" transform="matrix(1,0,0,1,-235.27000427246094,205.6929931640625)"><path fill="rgb(191,203,81)" fill-opacity="1" d=" M0,-22.413999557495117 C12.370285987854004,-22.413999557495117 22.413999557495117,-12.370285987854004 22.413999557495117,0 C22.413999557495117,12.370285987854004 12.370285987854004,22.413999557495117 0,22.413999557495117 C-12.370285987854004,22.413999557495117 -22.413999557495117,12.370285987854004 -22.413999557495117,0 C-22.413999557495117,-12.370285987854004 -12.370285987854004,-22.413999557495117 0,-22.413999557495117z"></path></g><g opacity="1" transform="matrix(1,0,0,1,-374.1319885253906,591.2059936523438)"><path fill="rgb(191,203,81)" fill-opacity="1" d=" M0,-22.413999557495117 C12.370285987854004,-22.413999557495117 22.413999557495117,-12.370285987854004 22.413999557495117,0 C22.413999557495117,12.370285987854004 12.370285987854004,22.413999557495117 0,22.413999557495117 C-12.370285987854004,22.413999557495117 -22.413999557495117,12.370285987854004 -22.413999557495117,0 C-22.413999557495117,-12.370285987854004 -12.370285987854004,-22.413999557495117 0,-22.413999557495117z"></path></g><g opacity="1" transform="matrix(0.31672999262809753,0,0,0.31672999262809753,-1356.0069580078125,859.2080078125)"><path fill="rgb(191,203,81)" fill-opacity="1" d=" M0,-22.413999557495117 C12.370285987854004,-22.413999557495117 22.413999557495117,-12.370285987854004 22.413999557495117,0 C22.413999557495117,12.370285987854004 12.370285987854004,22.413999557495117 0,22.413999557495117 C-12.370285987854004,22.413999557495117 -22.413999557495117,12.370285987854004 -22.413999557495117,0 C-22.413999557495117,-12.370285987854004 -12.370285987854004,-22.413999557495117 0,-22.413999557495117z"></path></g><g opacity="1" transform="matrix(1,0,0,1,-469.2909851074219,-411.3290100097656)"><path fill="rgb(248,153,43)" fill-opacity="1" d=" M0,-22.413999557495117 C12.370285987854004,-22.413999557495117 22.413999557495117,-12.370285987854004 22.413999557495117,0 C22.413999557495117,12.370285987854004 12.370285987854004,22.413999557495117 0,22.413999557495117 C-12.370285987854004,22.413999557495117 -22.413999557495117,12.370285987854004 -22.413999557495117,0 C-22.413999557495117,-12.370285987854004 -12.370285987854004,-22.413999557495117 0,-22.413999557495117z"></path></g><g opacity="1" transform="matrix(0.7526800036430359,0,0,0.7526800036430359,-805.22900390625,-605.4910278320312)"><path fill="rgb(248,153,43)" fill-opacity="1" d=" M0,-22.413999557495117 C12.370285987854004,-22.413999557495117 22.413999557495117,-12.370285987854004 22.413999557495117,0 C22.413999557495117,12.370285987854004 12.370285987854004,22.413999557495117 0,22.413999557495117 C-12.370285987854004,22.413999557495117 -22.413999557495117,12.370285987854004 -22.413999557495117,0 C-22.413999557495117,-12.370285987854004 -12.370285987854004,-22.413999557495117 0,-22.413999557495117z"></path></g><g opacity="1" transform="matrix(0.34994998574256897,0,0,0.34994998574256897,-1181.3280029296875,-616.2230224609375)"><path fill="rgb(248,153,43)" fill-opacity="1" d=" M0,-22.413999557495117 C12.370285987854004,-22.413999557495117 22.413999557495117,-12.370285987854004 22.413999557495117,0 C22.413999557495117,12.370285987854004 12.370285987854004,22.413999557495117 0,22.413999557495117 C-12.370285987854004,22.413999557495117 -22.413999557495117,12.370285987854004 -22.413999557495117,0 C-22.413999557495117,-12.370285987854004 -12.370285987854004,-22.413999557495117 0,-22.413999557495117z"></path></g><g opacity="1" transform="matrix(0.7526800036430359,0,0,0.7526800036430359,-253.45399475097656,326.84100341796875)"><path fill="rgb(248,153,43)" fill-opacity="1" d=" M0,-22.413999557495117 C12.370285987854004,-22.413999557495117 22.413999557495117,-12.370285987854004 22.413999557495117,0 C22.413999557495117,12.370285987854004 12.370285987854004,22.413999557495117 0,22.413999557495117 C-12.370285987854004,22.413999557495117 -22.413999557495117,12.370285987854004 -22.413999557495117,0 C-22.413999557495117,-12.370285987854004 -12.370285987854004,-22.413999557495117 0,-22.413999557495117z"></path></g><g opacity="1" transform="matrix(0.7526800036430359,0,0,0.7526800036430359,-1743.6300048828125,519.9349975585938)"><path fill="rgb(248,153,43)" fill-opacity="1" d=" M0,-22.413999557495117 C12.370285987854004,-22.413999557495117 22.413999557495117,-12.370285987854004 22.413999557495117,0 C22.413999557495117,12.370285987854004 12.370285987854004,22.413999557495117 0,22.413999557495117 C-12.370285987854004,22.413999557495117 -22.413999557495117,12.370285987854004 -22.413999557495117,0 C-22.413999557495117,-12.370285987854004 -12.370285987854004,-22.413999557495117 0,-22.413999557495117z"></path></g></g><g transform="matrix(-0.18879304826259613,0.3065243661403656,-0.3065243661403656,-0.18879304826259613,216.30355834960938,731.5740356445312)" opacity="1" style="display: block;"><g opacity="1" transform="matrix(1,0,0,1,-1425.2950439453125,-531.6270141601562)"><path fill="rgb(152,83,155)" fill-opacity="1" d=" M0,-22.413999557495117 C12.370285987854004,-22.413999557495117 22.413999557495117,-12.370285987854004 22.413999557495117,0 C22.413999557495117,12.370285987854004 12.370285987854004,22.413999557495117 0,22.413999557495117 C-12.370285987854004,22.413999557495117 -22.413999557495117,12.370285987854004 -22.413999557495117,0 C-22.413999557495117,-12.370285987854004 -12.370285987854004,-22.413999557495117 0,-22.413999557495117z"></path></g><g opacity="1" transform="matrix(1,0,0,1,-262.9840087890625,-31.827999114990234)"><path fill="rgb(152,83,155)" fill-opacity="1" d=" M0,-22.413999557495117 C12.370285987854004,-22.413999557495117 22.413999557495117,-12.370285987854004 22.413999557495117,0 C22.413999557495117,12.370285987854004 12.370285987854004,22.413999557495117 0,22.413999557495117 C-12.370285987854004,22.413999557495117 -22.413999557495117,12.370285987854004 -22.413999557495117,0 C-22.413999557495117,-12.370285987854004 -12.370285987854004,-22.413999557495117 0,-22.413999557495117z"></path></g><g opacity="1" transform="matrix(0.5749499797821045,0,0,0.5749499797821045,-1071.885009765625,932.5689697265625)"><path fill="rgb(152,83,155)" fill-opacity="1" d=" M0,-22.413999557495117 C12.370285987854004,-22.413999557495117 22.413999557495117,-12.370285987854004 22.413999557495117,0 C22.413999557495117,12.370285987854004 12.370285987854004,22.413999557495117 0,22.413999557495117 C-12.370285987854004,22.413999557495117 -22.413999557495117,12.370285987854004 -22.413999557495117,0 C-22.413999557495117,-12.370285987854004 -12.370285987854004,-22.413999557495117 0,-22.413999557495117z"></path></g><g opacity="1" transform="matrix(1,0,0,1,-641.9580078125,-543.2329711914062)"><path fill="rgb(32,191,223)" fill-opacity="1" d=" M0,-22.413999557495117 C12.370285987854004,-22.413999557495117 22.413999557495117,-12.370285987854004 22.413999557495117,0 C22.413999557495117,12.370285987854004 12.370285987854004,22.413999557495117 0,22.413999557495117 C-12.370285987854004,22.413999557495117 -22.413999557495117,12.370285987854004 -22.413999557495117,0 C-22.413999557495117,-12.370285987854004 -12.370285987854004,-22.413999557495117 0,-22.413999557495117z"></path></g><g opacity="1" transform="matrix(0.6245700120925903,0,0,0.6245700120925903,-1693.906005859375,455.85699462890625)"><path fill="rgb(32,191,223)" fill-opacity="1" d=" M0,-22.413999557495117 C12.370285987854004,-22.413999557495117 22.413999557495117,-12.370285987854004 22.413999557495117,0 C22.413999557495117,12.370285987854004 12.370285987854004,22.413999557495117 0,22.413999557495117 C-12.370285987854004,22.413999557495117 -22.413999557495117,12.370285987854004 -22.413999557495117,0 C-22.413999557495117,-12.370285987854004 -12.370285987854004,-22.413999557495117 0,-22.413999557495117z"></path></g><g opacity="1" transform="matrix(1,0,0,1,-1334.2459716796875,-571.8720092773438)"><path fill="rgb(32,191,223)" fill-opacity="1" d=" M0,-22.413999557495117 C12.370285987854004,-22.413999557495117 22.413999557495117,-12.370285987854004 22.413999557495117,0 C22.413999557495117,12.370285987854004 12.370285987854004,22.413999557495117 0,22.413999557495117 C-12.370285987854004,22.413999557495117 -22.413999557495117,12.370285987854004 -22.413999557495117,0 C-22.413999557495117,-12.370285987854004 -12.370285987854004,-22.413999557495117 0,-22.413999557495117z"></path></g><g opacity="1" transform="matrix(1,0,0,1,-1809.5699462890625,76.95600128173828)"><path fill="rgb(32,191,223)" fill-opacity="1" d=" M0,-22.413999557495117 C12.370285987854004,-22.413999557495117 22.413999557495117,-12.370285987854004 22.413999557495117,0 C22.413999557495117,12.370285987854004 12.370285987854004,22.413999557495117 0,22.413999557495117 C-12.370285987854004,22.413999557495117 -22.413999557495117,12.370285987854004 -22.413999557495117,0 C-22.413999557495117,-12.370285987854004 -12.370285987854004,-22.413999557495117 0,-22.413999557495117z"></path></g><g opacity="1" transform="matrix(0.5631899833679199,0,0,0.5631899833679199,-275.70001220703125,388.9960021972656)"><path fill="rgb(32,191,223)" fill-opacity="1" d=" M0,-22.413999557495117 C12.370285987854004,-22.413999557495117 22.413999557495117,-12.370285987854004 22.413999557495117,0 C22.413999557495117,12.370285987854004 12.370285987854004,22.413999557495117 0,22.413999557495117 C-12.370285987854004,22.413999557495117 -22.413999557495117,12.370285987854004 -22.413999557495117,0 C-22.413999557495117,-12.370285987854004 -12.370285987854004,-22.413999557495117 0,-22.413999557495117z"></path></g><g opacity="1" transform="matrix(0.5631899833679199,0,0,0.5631899833679199,-523.2949829101562,753.989990234375)"><path fill="rgb(32,191,223)" fill-opacity="1" d=" M0,-22.413999557495117 C12.370285987854004,-22.413999557495117 22.413999557495117,-12.370285987854004 22.413999557495117,0 C22.413999557495117,12.370285987854004 12.370285987854004,22.413999557495117 0,22.413999557495117 C-12.370285987854004,22.413999557495117 -22.413999557495117,12.370285987854004 -22.413999557495117,0 C-22.413999557495117,-12.370285987854004 -12.370285987854004,-22.413999557495117 0,-22.413999557495117z"></path></g><g opacity="1" transform="matrix(0.5631899833679199,0,0,0.5631899833679199,-1033.2220458984375,935.4190063476562)"><path fill="rgb(32,191,223)" fill-opacity="1" d=" M0,-22.413999557495117 C12.370285987854004,-22.413999557495117 22.413999557495117,-12.370285987854004 22.413999557495117,0 C22.413999557495117,12.370285987854004 12.370285987854004,22.413999557495117 0,22.413999557495117 C-12.370285987854004,22.413999557495117 -22.413999557495117,12.370285987854004 -22.413999557495117,0 C-22.413999557495117,-12.370285987854004 -12.370285987854004,-22.413999557495117 0,-22.413999557495117z"></path></g><g opacity="1" transform="matrix(0.5631899833679199,0,0,0.5631899833679199,-1419.9859619140625,825.39697265625)"><path fill="rgb(32,191,223)" fill-opacity="1" d=" M0,-22.413999557495117 C12.370285987854004,-22.413999557495117 22.413999557495117,-12.370285987854004 22.413999557495117,0 C22.413999557495117,12.370285987854004 12.370285987854004,22.413999557495117 0,22.413999557495117 C-12.370285987854004,22.413999557495117 -22.413999557495117,12.370285987854004 -22.413999557495117,0 C-22.413999557495117,-12.370285987854004 -12.370285987854004,-22.413999557495117 0,-22.413999557495117z"></path></g><g opacity="1" transform="matrix(1,0,0,1,-1707.8480224609375,-265.05499267578125)"><path fill="rgb(191,203,81)" fill-opacity="1" d=" M0,-22.413999557495117 C12.370285987854004,-22.413999557495117 22.413999557495117,-12.370285987854004 22.413999557495117,0 C22.413999557495117,12.370285987854004 12.370285987854004,22.413999557495117 0,22.413999557495117 C-12.370285987854004,22.413999557495117 -22.413999557495117,12.370285987854004 -22.413999557495117,0 C-22.413999557495117,-12.370285987854004 -12.370285987854004,-22.413999557495117 0,-22.413999557495117z"></path></g><g opacity="1" transform="matrix(1,0,0,1,-1670.8609619140625,572.198974609375)"><path fill="rgb(191,203,81)" fill-opacity="1" d=" M0,-22.413999557495117 C12.370285987854004,-22.413999557495117 22.413999557495117,-12.370285987854004 22.413999557495117,0 C22.413999557495117,12.370285987854004 12.370285987854004,22.413999557495117 0,22.413999557495117 C-12.370285987854004,22.413999557495117 -22.413999557495117,12.370285987854004 -22.413999557495117,0 C-22.413999557495117,-12.370285987854004 -12.370285987854004,-22.413999557495117 0,-22.413999557495117z"></path></g><g opacity="1" transform="matrix(1,0,0,1,-235.27000427246094,205.6929931640625)"><path fill="rgb(191,203,81)" fill-opacity="1" d=" M0,-22.413999557495117 C12.370285987854004,-22.413999557495117 22.413999557495117,-12.370285987854004 22.413999557495117,0 C22.413999557495117,12.370285987854004 12.370285987854004,22.413999557495117 0,22.413999557495117 C-12.370285987854004,22.413999557495117 -22.413999557495117,12.370285987854004 -22.413999557495117,0 C-22.413999557495117,-12.370285987854004 -12.370285987854004,-22.413999557495117 0,-22.413999557495117z"></path></g><g opacity="1" transform="matrix(1,0,0,1,-335.1809997558594,-235.75799560546875)"><path fill="rgb(191,203,81)" fill-opacity="1" d=" M0,-22.413999557495117 C12.370285987854004,-22.413999557495117 22.413999557495117,-12.370285987854004 22.413999557495117,0 C22.413999557495117,12.370285987854004 12.370285987854004,22.413999557495117 0,22.413999557495117 C-12.370285987854004,22.413999557495117 -22.413999557495117,12.370285987854004 -22.413999557495117,0 C-22.413999557495117,-12.370285987854004 -12.370285987854004,-22.413999557495117 0,-22.413999557495117z"></path></g><g opacity="1" transform="matrix(1,0,0,1,-374.1319885253906,591.2059936523438)"><path fill="rgb(191,203,81)" fill-opacity="1" d=" M0,-22.413999557495117 C12.370285987854004,-22.413999557495117 22.413999557495117,-12.370285987854004 22.413999557495117,0 C22.413999557495117,12.370285987854004 12.370285987854004,22.413999557495117 0,22.413999557495117 C-12.370285987854004,22.413999557495117 -22.413999557495117,12.370285987854004 -22.413999557495117,0 C-22.413999557495117,-12.370285987854004 -12.370285987854004,-22.413999557495117 0,-22.413999557495117z"></path></g><g opacity="1" transform="matrix(1,0,0,1,-1356.0069580078125,859.2080078125)"><path fill="rgb(191,203,81)" fill-opacity="1" d=" M0,-22.413999557495117 C12.370285987854004,-22.413999557495117 22.413999557495117,-12.370285987854004 22.413999557495117,0 C22.413999557495117,12.370285987854004 12.370285987854004,22.413999557495117 0,22.413999557495117 C-12.370285987854004,22.413999557495117 -22.413999557495117,12.370285987854004 -22.413999557495117,0 C-22.413999557495117,-12.370285987854004 -12.370285987854004,-22.413999557495117 0,-22.413999557495117z"></path></g><g opacity="1" transform="matrix(1,0,0,1,-1810.615966796875,166.96499633789062)"><path fill="rgb(191,203,81)" fill-opacity="1" d=" M0,-22.413999557495117 C12.370285987854004,-22.413999557495117 22.413999557495117,-12.370285987854004 22.413999557495117,0 C22.413999557495117,12.370285987854004 12.370285987854004,22.413999557495117 0,22.413999557495117 C-12.370285987854004,22.413999557495117 -22.413999557495117,12.370285987854004 -22.413999557495117,0 C-22.413999557495117,-12.370285987854004 -12.370285987854004,-22.413999557495117 0,-22.413999557495117z"></path></g><g opacity="1" transform="matrix(0.5590199828147888,0,0,0.5590199828147888,-413.9200134277344,-402.781005859375)"><path fill="rgb(191,203,81)" fill-opacity="1" d=" M0,-22.413999557495117 C12.370285987854004,-22.413999557495117 22.413999557495117,-12.370285987854004 22.413999557495117,0 C22.413999557495117,12.370285987854004 12.370285987854004,22.413999557495117 0,22.413999557495117 C-12.370285987854004,22.413999557495117 -22.413999557495117,12.370285987854004 -22.413999557495117,0 C-22.413999557495117,-12.370285987854004 -12.370285987854004,-22.413999557495117 0,-22.413999557495117z"></path></g><g opacity="1" transform="matrix(0.5590199828147888,0,0,0.5590199828147888,-607.5130004882812,-516.302001953125)"><path fill="rgb(191,203,81)" fill-opacity="1" d=" M0,-22.413999557495117 C12.370285987854004,-22.413999557495117 22.413999557495117,-12.370285987854004 22.413999557495117,0 C22.413999557495117,12.370285987854004 12.370285987854004,22.413999557495117 0,22.413999557495117 C-12.370285987854004,22.413999557495117 -22.413999557495117,12.370285987854004 -22.413999557495117,0 C-22.413999557495117,-12.370285987854004 -12.370285987854004,-22.413999557495117 0,-22.413999557495117z"></path></g><g opacity="1" transform="matrix(1,0,0,1,-469.2909851074219,-411.3290100097656)"><path fill="rgb(248,153,43)" fill-opacity="1" d=" M0,-22.413999557495117 C12.370285987854004,-22.413999557495117 22.413999557495117,-12.370285987854004 22.413999557495117,0 C22.413999557495117,12.370285987854004 12.370285987854004,22.413999557495117 0,22.413999557495117 C-12.370285987854004,22.413999557495117 -22.413999557495117,12.370285987854004 -22.413999557495117,0 C-22.413999557495117,-12.370285987854004 -12.370285987854004,-22.413999557495117 0,-22.413999557495117z"></path></g><g opacity="1" transform="matrix(0.7526800036430359,0,0,0.7526800036430359,-805.22900390625,-605.4910278320312)"><path fill="rgb(248,153,43)" fill-opacity="1" d=" M0,-22.413999557495117 C12.370285987854004,-22.413999557495117 22.413999557495117,-12.370285987854004 22.413999557495117,0 C22.413999557495117,12.370285987854004 12.370285987854004,22.413999557495117 0,22.413999557495117 C-12.370285987854004,22.413999557495117 -22.413999557495117,12.370285987854004 -22.413999557495117,0 C-22.413999557495117,-12.370285987854004 -12.370285987854004,-22.413999557495117 0,-22.413999557495117z"></path></g><g opacity="1" transform="matrix(0.7526800036430359,0,0,0.7526800036430359,-1181.3280029296875,-616.2230224609375)"><path fill="rgb(248,153,43)" fill-opacity="1" d=" M0,-22.413999557495117 C12.370285987854004,-22.413999557495117 22.413999557495117,-12.370285987854004 22.413999557495117,0 C22.413999557495117,12.370285987854004 12.370285987854004,22.413999557495117 0,22.413999557495117 C-12.370285987854004,22.413999557495117 -22.413999557495117,12.370285987854004 -22.413999557495117,0 C-22.413999557495117,-12.370285987854004 -12.370285987854004,-22.413999557495117 0,-22.413999557495117z"></path></g><g opacity="1" transform="matrix(0.7526800036430359,0,0,0.7526800036430359,-253.45399475097656,326.84100341796875)"><path fill="rgb(248,153,43)" fill-opacity="1" d=" M0,-22.413999557495117 C12.370285987854004,-22.413999557495117 22.413999557495117,-12.370285987854004 22.413999557495117,0 C22.413999557495117,12.370285987854004 12.370285987854004,22.413999557495117 0,22.413999557495117 C-12.370285987854004,22.413999557495117 -22.413999557495117,12.370285987854004 -22.413999557495117,0 C-22.413999557495117,-12.370285987854004 -12.370285987854004,-22.413999557495117 0,-22.413999557495117z"></path></g><g opacity="1" transform="matrix(0.7526800036430359,0,0,0.7526800036430359,-1743.6300048828125,519.9349975585938)"><path fill="rgb(248,153,43)" fill-opacity="1" d=" M0,-22.413999557495117 C12.370285987854004,-22.413999557495117 22.413999557495117,-12.370285987854004 22.413999557495117,0 C22.413999557495117,12.370285987854004 12.370285987854004,22.413999557495117 0,22.413999557495117 C-12.370285987854004,22.413999557495117 -22.413999557495117,12.370285987854004 -22.413999557495117,0 C-22.413999557495117,-12.370285987854004 -12.370285987854004,-22.413999557495117 0,-22.413999557495117z"></path></g></g></g></svg>